<svg xmlns="http://www.w3.org/2000/svg" xmlns:xlink="http://www.w3.org/1999/xlink" version="1.1" width="256" height="256" viewBox="0 0 256 256" xml:space="preserve">

<defs>
</defs>
<g style="stroke: none; stroke-width: 0; stroke-dasharray: none; stroke-linecap: butt; stroke-linejoin: miter; stroke-miterlimit: 10; fill: none; fill-rule: nonzero; opacity: 1;" transform="translate(1.4065934065934016 1.4065934065934016) scale(2.81 2.81)" >
	<path d="M 62.452 18.515 H 45 c -1.178 0 -2.232 -0.734 -2.639 -1.84 c -0.408 -1.105 -0.083 -2.348 0.813 -3.113 L 56.447 2.23 c 2.779 -2.371 6.564 -2.893 9.879 -1.365 c 3.316 1.529 5.377 4.748 5.377 8.4 C 71.702 14.366 67.552 18.515 62.452 18.515 z M 52.629 12.889 h 9.824 c 1.997 0 3.623 -1.626 3.623 -3.623 c 0 -1.452 -0.788 -2.682 -2.106 -3.29 s -2.764 -0.407 -3.868 0.534 L 52.629 12.889 z" style="stroke: none; stroke-width: 1; stroke-dasharray: none; stroke-linecap: butt; stroke-linejoin: miter; stroke-miterlimit: 10; fill: rgb(0,0,0); fill-rule: nonzero; opacity: 1;" transform=" matrix(1 0 0 1 0 0) " stroke-linecap="round" />
	<path d="M 45 18.515 H 27.548 c -5.101 0 -9.25 -4.149 -9.25 -9.25 c 0 -3.652 2.06 -6.87 5.377 -8.4 c 3.315 -1.529 7.102 -1.006 9.879 1.365 l 13.274 11.332 c 0.896 0.765 1.22 2.008 0.812 3.113 C 47.232 17.781 46.179 18.515 45 18.515 z M 27.572 5.628 c -0.515 0 -1.038 0.114 -1.542 0.347 c -1.319 0.609 -2.106 1.838 -2.106 3.29 c 0 1.998 1.626 3.623 3.623 3.623 h 9.824 L 29.9 6.51 C 29.218 5.927 28.405 5.628 27.572 5.628 z" style="stroke: none; stroke-width: 1; stroke-dasharray: none; stroke-linecap: butt; stroke-linejoin: miter; stroke-miterlimit: 10; fill: rgb(0,0,0); fill-rule: nonzero; opacity: 1;" transform=" matrix(1 0 0 1 0 0) " stroke-linecap="round" />
	<path d="M 80.792 90 H 9.208 c -1.176 0 -2.129 -0.953 -2.129 -2.129 V 43.173 c 0 -1.176 0.953 -2.129 2.129 -2.129 h 71.584 c 1.176 0 2.129 0.953 2.129 2.129 v 44.699 C 82.921 89.047 81.968 90 80.792 90 z" style="stroke: none; stroke-width: 1; stroke-dasharray: none; stroke-linecap: butt; stroke-linejoin: miter; stroke-miterlimit: 10; fill: rgb(0,0,0); fill-rule: nonzero; opacity: 1;" transform=" matrix(1 0 0 1 0 0) " stroke-linecap="round" />
	<path d="M 89.818 32.958 c 0 1.176 -0.953 2.129 -2.129 2.129 h -1.321 H 3.632 H 2.31 c -1.176 0 -2.129 -0.953 -2.129 -2.129 v -6.688 c 0 -1.176 0.953 -2.129 2.129 -2.129 h 21.303 H 45 h 21.387 H 87.69 c 1.176 0 2.129 0.953 2.129 2.129 V 32.958 z" style="stroke: none; stroke-width: 1; stroke-dasharray: none; stroke-linecap: butt; stroke-linejoin: miter; stroke-miterlimit: 10; fill: rgb(0,0,0); fill-rule: nonzero; opacity: 1;" transform=" matrix(1 0 0 1 0 0) " stroke-linecap="round" />
</g>
</svg>